<svg width="25" height="25" viewBox="0 0 25 25" fill="none" xmlns="http://www.w3.org/2000/svg">
<path d="M15.5535 1.97236L14.9329 3.32495C14.8403 3.52678 14.6917 3.69779 14.5048 3.81769C14.3179 3.93758 14.1005 4.00131 13.8784 4.00131H3.24902C2.6083 4.00131 2.08887 4.52075 2.08887 5.16147V17.3293C2.08887 17.97 2.6083 18.4894 3.24902 18.4894H22.7607C23.4014 18.4894 23.9208 17.97 23.9208 17.3293V2.45615C23.9208 1.81542 23.4014 1.29599 22.7607 1.29599H16.608C16.3859 1.29599 16.1685 1.35972 15.9816 1.47962C15.7947 1.59951 15.6461 1.77052 15.5535 1.97236V1.97236Z" fill="#73A8FF"/>
<path d="M22.8662 19.2704V9.82294C22.8662 9.18221 22.3467 8.66278 21.706 8.66278H11.0766C10.8545 8.66278 10.6371 8.59905 10.4502 8.47916C10.2633 8.35926 10.1147 8.18825 10.0221 7.98641L9.40151 6.63383C9.30891 6.43199 9.16032 6.26098 8.9734 6.14108C8.78648 6.02119 8.56909 5.95746 8.34702 5.95746H2.19434C1.55361 5.95746 1.03418 6.47689 1.03418 7.11761V21.5021C1.03418 22.1429 1.55361 22.6623 2.19434 22.6623H21.706C21.7736 22.6623 21.8398 22.6562 21.9043 22.6451C21.9843 22.6561 22.0659 22.6623 22.149 22.6623C23.1275 22.6623 23.9207 21.8691 23.9207 20.8906C23.9207 20.1673 23.4873 19.5457 22.8662 19.2704V19.2704Z" fill="#A0C4FF"/>
<path d="M22.8662 15.4951V20.6889H22.8683C22.8683 20.9795 23.1039 21.2151 23.3945 21.2151C23.6852 21.2151 23.9207 20.9795 23.9207 20.6889V15.4951H22.8662Z" fill="#73A8FF"/>
</svg>
