<svg width="50" height="50" viewBox="0 0 50 50" fill="none" xmlns="http://www.w3.org/2000/svg">
<path d="M31.1064 3.94471L29.8653 6.64989C29.6801 7.05356 29.3829 7.39559 29.0091 7.63537C28.6353 7.87516 28.2005 8.00262 27.7563 8.00262H6.49756C5.21611 8.00262 4.17725 9.04149 4.17725 10.3229V34.6586C4.17725 35.94 5.21611 36.9789 6.49756 36.9789H45.5209C46.8023 36.9789 47.8412 35.94 47.8412 34.6586V4.91229C47.8412 3.63085 46.8023 2.59198 45.5209 2.59198H33.2154C32.7713 2.59198 32.3365 2.71945 31.9627 2.95923C31.5888 3.19902 31.2917 3.54105 31.1064 3.94471V3.94471Z" fill="#73A8FF"/>
<path d="M45.7323 38.5408V19.6459C45.7323 18.3645 44.6935 17.3256 43.412 17.3256H22.1531C21.709 17.3256 21.2742 17.1981 20.9004 16.9583C20.5265 16.7186 20.2294 16.3765 20.0441 15.9729L18.803 13.2677C18.6178 12.864 18.3206 12.522 17.9468 12.2822C17.573 12.0424 17.1382 11.915 16.694 11.9149H4.38867C3.10723 11.9149 2.06836 12.9538 2.06836 14.2353V43.0043C2.06836 44.2858 3.10723 45.3246 4.38867 45.3246H43.412C43.5473 45.3246 43.6797 45.3124 43.8086 45.2901C43.9686 45.3123 44.1318 45.3246 44.298 45.3246C46.2551 45.3246 47.8415 43.7382 47.8415 41.7812C47.8415 40.3347 46.9745 39.0915 45.7323 38.5408V38.5408Z" fill="#A0C4FF"/>
<path d="M45.7319 30.9902V41.3778H45.7361C45.7361 41.9591 46.2073 42.4303 46.7886 42.4303C47.3698 42.4303 47.841 41.9591 47.841 41.3778V30.9902H45.7319Z" fill="#73A8FF"/>
</svg>
